<svg xmlns="http://www.w3.org/2000/svg" viewBox="0 0 64 64" fill="none" stroke="#c9a84c" stroke-width="1.8" stroke-linecap="round" stroke-linejoin="round">
  <!-- Fork -->
  <line x1="18" y1="10" x2="18" y2="28"/>
  <line x1="24" y1="10" x2="24" y2="28"/>
  <path d="M15 28c0 4 3 6 6 6s6-2 6-6"/>
  <line x1="21" y1="34" x2="21" y2="42"/>
  <!-- Plate with pasta -->
  <ellipse cx="38" cy="44" rx="18" ry="8"/>
  <path d="M24 40c2-6 6-10 10-12"/>
  <path d="M30 38c2-5 5-9 9-10"/>
  <path d="M36 37c3-4 6-7 10-8"/>
  <path d="M42 38c2-3 4-6 7-7"/>
  <!-- Steam -->
  <path d="M34 28c1-2 0-4 1-6" opacity="0.6"/>
  <path d="M40 26c1-2 0-4 1-6" opacity="0.6"/>
</svg>