<svg xmlns="http://www.w3.org/2000/svg" viewBox="0 0 64 64" fill="none" stroke="#c9a84c" stroke-width="1.8" stroke-linecap="round" stroke-linejoin="round">
  <!-- Bowl -->
  <path d="M8 32h48"/>
  <path d="M10 32c1 12 10 20 22 20s21-8 22-20"/>
  <!-- Leaves sticking out -->
  <path d="M20 32c-2-4-6-10-2-14 3 1 5 5 6 10"/>
  <path d="M30 32c0-6-1-14 3-16 3 3 2 10 1 16"/>
  <path d="M40 32c1-5 4-12 8-13 1 4-2 9-5 13"/>
  <!-- Tomato slice -->
  <circle cx="26" cy="28" r="3.5" opacity="0.5" fill="#c9a84c"/>
  <circle cx="26" cy="28" r="3.5"/>
  <line x1="26" y1="24.5" x2="26" y2="31.5" opacity="0.4"/>
  <line x1="22.5" y1="28" x2="29.5" y2="28" opacity="0.4"/>
  <!-- Small leaf detail -->
  <path d="M44 30c2-3 5-6 7-5-1 3-4 5-7 5"/>
  <path d="M15 30c-2-4-3-8-1-9 2 1 3 5 3 9"/>
</svg>