<svg xmlns="http://www.w3.org/2000/svg" viewBox="0 0 64 64" fill="none" stroke="#c9a84c" stroke-width="1.8" stroke-linecap="round" stroke-linejoin="round">
  <!-- Top bun -->
  <path d="M12 28c0-10 9-18 20-18s20 8 20 18z"/>
  <!-- Sesame seeds -->
  <ellipse cx="24" cy="18" rx="1.5" ry="1" opacity="0.5" fill="#c9a84c"/>
  <ellipse cx="32" cy="14" rx="1.5" ry="1" opacity="0.5" fill="#c9a84c"/>
  <ellipse cx="40" cy="18" rx="1.5" ry="1" opacity="0.5" fill="#c9a84c"/>
  <!-- Lettuce -->
  <path d="M10 30c4 2 8-1 12 1s8-1 12 1 8-1 12 1 4 0 6-1"/>
  <!-- Cheese -->
  <polygon points="10,34 14,38 24,34 28,38 38,34 42,38 52,34" opacity="0.4" fill="#c9a84c"/>
  <path d="M10 34l4 4 10-4 4 4 10-4 4 4 10-4"/>
  <!-- Meat patty -->
  <rect x="11" y="38" width="42" height="6" rx="3" opacity="0.15" fill="#c9a84c"/>
  <rect x="11" y="38" width="42" height="6" rx="3"/>
  <!-- Bottom bun -->
  <path d="M10 46h44c0 4-9 8-22 8S10 50 10 46z"/>
</svg>