<svg xmlns="http://www.w3.org/2000/svg" viewBox="0 0 256 256">
  <rect width="256" height="256" fill="none"/>
  <g transform="translate(128, 128)">
    <circle cx="0" cy="0" r="8" fill="#D4AF37"/>
    <path d="M 0,-50 Q 15,-35 12,-15 Q 8,-5 0,0 Q -8,-5 -12,-15 Q -15,-35 0,-50 Z" fill="#6B1C23"/>
    <path d="M 35.36,-35.36 Q 35,-15 20,-10 Q 10,-7 0,0 Q 5,-10 8,-20 Q 12,-35 35.36,-35.36 Z" fill="#6B1C23"/>
    <path d="M 50,0 Q 35,10 20,8 Q 8,6 0,0 Q 8,-6 18,-8 Q 35,-10 50,0 Z" fill="#6B1C23"/>
    <path d="M 35.36,35.36 Q 20,35 12,20 Q 8,10 0,0 Q 10,5 20,8 Q 35,12 35.36,35.36 Z" fill="#6B1C23"/>
    <path d="M 0,50 Q -12,35 -10,20 Q -7,8 0,0 Q 6,8 8,18 Q 10,35 0,50 Z" fill="#6B1C23"/>
    <path d="M -35.36,35.36 Q -35,20 -20,12 Q -10,8 0,0 Q -5,10 -8,20 Q -12,35 -35.36,35.36 Z" fill="#8B2530"/>
    <path d="M -50,0 Q -35,-10 -20,-8 Q -8,-6 0,0 Q -8,6 -18,8 Q -35,10 -50,0 Z" fill="#8B2530"/>
    <path d="M -35.36,-35.36 Q -20,-35 -12,-20 Q -8,-10 0,0 Q -10,-5 -20,-8 Q -35,-12 -35.36,-35.36 Z" fill="#8B2530"/>
    <circle cx="0" cy="0" r="12" fill="#D4AF37" opacity="0.3"/>
    <circle cx="0" cy="0" r="6" fill="#D4AF37"/>
  </g>
</svg>